<?xml version="1.0" encoding="UTF-8"?>
<svg id="Layer_1" data-name="Layer 1" xmlns="http://www.w3.org/2000/svg" viewBox="0 0 91.755 17.359">
  <path d="M2.355,17.359H0L6.597,0h13.218l6.596,17.359h-13.168l-1.289-3.348H3.621l-1.266,3.348ZM4.464,11.829h6.671L7.787,3.025l-3.323,8.804Z" fill="#e51b46"/>
  <path d="M58.921,0v17.359h-12.994v-.024l-4.34-11.234v11.259h-12.97V0h12.97l4.34,11.234V0h12.994Z" fill="#e51b46"/>
  <path d="M85.158,17.359h-23.732V0h23.732c.909,0,1.765.174,2.566.521.802.347,1.501.818,2.096,1.413s1.066,1.29,1.414,2.083c.347.794.521,1.653.521,2.579v4.142c0,.909-.174,1.765-.521,2.566-.348.802-.818,1.5-1.414,2.096s-1.294,1.066-2.096,1.413c-.802.348-1.657.521-2.566.521v.024ZM78.735,2.579c0-.115-.037-.211-.111-.285s-.161-.111-.261-.111h-3.968v12.994h3.968c.1,0,.187-.037.261-.111s.111-.169.111-.285V2.579Z" fill="#e51b46"/>
</svg>