<?xml version="1.0" encoding="UTF-8"?>
<svg id="Layer_1" data-name="Layer 1" xmlns="http://www.w3.org/2000/svg" viewBox="0 0 92.735 18.159">
  <path d="M27.57,18.159h-14.022l-1.289-3.348h-7.781l-1.266,3.348H0L6.9,0h13.771l6.899,18.159ZM14.097,17.359h12.313L20.118.8H7.453L1.16,17.359h1.499l1.266-3.348h8.883l1.289,3.348ZM12.295,12.629h-7.829l3.9-10.333,3.929,10.333ZM5.622,11.829h5.513l-2.767-7.275-2.746,7.275Z" fill="#e51b46"/>
  <path d="M59.901,18.159h-13.795v-.35l-3.539-9.164v9.513h-13.771V0h13.645l3.665,9.489V0h13.795v18.159ZM46.791,17.359h12.31V.8h-12.193v12.98L41.893.8h-12.295v16.56h12.169V4.355l5.024,13.004Z" fill="#e51b46"/>
  <path d="M85.738,18.159h-24.133V0h24.133c.96,0,1.877.187,2.726.554.844.365,1.591.869,2.22,1.498.627.627,1.131,1.369,1.497,2.205.368.842.555,1.764.555,2.74v4.142c0,.959-.187,1.876-.554,2.725-.366.845-.871,1.592-1.498,2.22-.629.628-1.376,1.132-2.22,1.498-.73.316-1.511.499-2.325.543v.011l-.4.024ZM62.406,17.359l23.332-.024c.85,0,1.66-.165,2.407-.489.752-.325,1.415-.772,1.972-1.329s1.004-1.22,1.33-1.972c.323-.748.487-1.558.487-2.407v-4.142c0-.865-.163-1.679-.486-2.419-.326-.744-.774-1.404-1.331-1.96s-1.22-1.004-1.972-1.329c-.747-.324-1.558-.489-2.407-.489h-23.332v16.56ZM78.943,15.977h-4.368V2.183h4.368c.206,0,.395.079.544.229s.229.346.229.568v12.201c0,.222-.079.418-.229.568s-.338.229-.544.229ZM75.376,15.177h3.567l-.028-12.198c0-.01,0-.014,0-.014l-3.538.016v12.196Z" fill="#e51b46"/>
</svg>