<?xml version="1.0" encoding="UTF-8"?>
<svg id="Layer_1" data-name="Layer 1" xmlns="http://www.w3.org/2000/svg" viewBox="0 0 1664.34 14.127">
  <rect x="184.927" y=".073" width="30.821" height="14.055" fill="#bababa"/>
  <g id="HoPe7S.tif">
    <path d="M209.068,12.244l-.014-2.925,2.727-.008v.831l-1.836.013.003,1.143,2.986-.005.003-3.115h-8.904s.002,3.118.002,3.118h2.958s0-1.141,0-1.141h-1.811s.005-.842.005-.842l2.716-.005-.006,2.933-11.505.002v-6.988s3.819.015,3.819.015v4.151s-.962,0-.962,0l-.004-2.128h-1.515s-.006,3.701-.006,3.701l4.075-.005-.007-7.279-6.944-.002v8.534s-9.923.002-9.923.002V1.902s7.005-.004,7.005-.004v6.951s-3.877.003-3.877.003v-4.13s.942.002.942.002l-.006,2.048,1.613-.003-.012-3.615-4.065-.002-.007,7.267h6.947s.006-8.519.006-8.519h14.433s0,2.936,0,2.936l-2.684.011s0-.897-.006-.897h1.758s0-1.125,0-1.125l-2.939.015.003,3.14,8.903.002-.008-3.155-2.971.006-.003,1.129,1.793.009-.006.875-2.686-.005-.003-2.94h5.29s0,10.34,0,10.34l-5.279.005Z" fill="#eeedee"/>
  </g>
  <rect x="154.106" y=".073" width="30.821" height="14.055" fill="#bababa"/>
  <g id="HoPe7S.tif-2" data-name="HoPe7S.tif">
    <path d="M178.247,12.244l-.014-2.925,2.727-.008v.831l-1.836.013.003,1.143,2.986-.005.003-3.115h-8.904s.002,3.118.002,3.118h2.958s0-1.141,0-1.141h-1.811s.005-.842.005-.842l2.716-.005-.006,2.933-11.505.002v-6.988s3.819.015,3.819.015v4.151s-.962,0-.962,0l-.004-2.128h-1.515s-.006,3.701-.006,3.701l4.075-.005-.007-7.279-6.944-.002v8.534s-9.923.002-9.923.002V1.902s7.005-.004,7.005-.004v6.951s-3.877.003-3.877.003v-4.13s.942.002.942.002l-.006,2.048,1.613-.003-.012-3.615-4.065-.002-.007,7.267h6.947s.006-8.519.006-8.519h14.433s0,2.936,0,2.936l-2.684.011s0-.897-.006-.897h1.758s0-1.125,0-1.125l-2.939.015.003,3.14,8.903.002-.008-3.155-2.971.006-.003,1.129,1.793.009-.006.875-2.686-.005-.003-2.94h5.29s0,10.34,0,10.34l-5.279.005Z" fill="#eeedee"/>
  </g>
  <rect x="123.285" y=".073" width="30.821" height="14.055" fill="#bababa"/>
  <g id="HoPe7S.tif-3" data-name="HoPe7S.tif">
    <path d="M147.426,12.244l-.014-2.925,2.727-.008v.831l-1.836.013.003,1.143,2.986-.005.003-3.115h-8.904s.002,3.118.002,3.118h2.958s0-1.141,0-1.141h-1.811s.005-.842.005-.842l2.716-.005-.006,2.933-11.505.002v-6.988s3.819.015,3.819.015v4.151s-.962,0-.962,0l-.004-2.128h-1.515s-.006,3.701-.006,3.701l4.075-.005-.007-7.279-6.944-.002v8.534s-9.923.002-9.923.002V1.902s7.005-.004,7.005-.004v6.951s-3.877.003-3.877.003v-4.13s.942.002.942.002l-.006,2.048,1.613-.003-.012-3.615-4.065-.002-.007,7.267h6.947s.006-8.519.006-8.519h14.433s0,2.936,0,2.936l-2.684.011s0-.897-.006-.897h1.758s0-1.125,0-1.125l-2.939.015.003,3.14,8.903.002-.008-3.155-2.971.006-.003,1.129,1.793.009-.006.875-2.686-.005-.003-2.94h5.29s0,10.34,0,10.34l-5.279.005Z" fill="#eeedee"/>
  </g>
  <rect x="92.463" y=".073" width="30.821" height="14.055" fill="#bababa"/>
  <g id="HoPe7S.tif-4" data-name="HoPe7S.tif">
    <path d="M116.605,12.244l-.014-2.925,2.727-.008v.831l-1.836.013.003,1.143,2.986-.005.003-3.115h-8.904s.002,3.118.002,3.118h2.958s0-1.141,0-1.141h-1.811s.005-.842.005-.842l2.716-.005-.006,2.933-11.505.002v-6.988s3.819.015,3.819.015v4.151s-.962,0-.962,0l-.004-2.128h-1.515s-.006,3.701-.006,3.701l4.075-.005-.007-7.279-6.944-.002v8.534s-9.923.002-9.923.002V1.902s7.005-.004,7.005-.004v6.951s-3.877.003-3.877.003v-4.13s.942.002.942.002l-.006,2.048,1.613-.003-.012-3.615-4.065-.002-.007,7.267h6.947s.006-8.519.006-8.519h14.433s0,2.936,0,2.936l-2.684.011s0-.897-.006-.897h1.758s0-1.125,0-1.125l-2.939.015.003,3.14,8.903.002-.008-3.155-2.971.006-.003,1.129,1.793.009-.006.875-2.686-.005-.003-2.94h5.29s0,10.34,0,10.34l-5.279.005Z" fill="#eeedee"/>
  </g>
  <rect x="61.643" y=".073" width="30.821" height="14.055" fill="#bababa"/>
  <g id="HoPe7S.tif-5" data-name="HoPe7S.tif">
    <path d="M85.784,12.244l-.014-2.925,2.727-.008v.831l-1.836.013.003,1.143,2.986-.005.003-3.115h-8.904s.002,3.118.002,3.118h2.958s0-1.141,0-1.141h-1.811s.005-.842.005-.842l2.716-.005-.006,2.933-11.505.002v-6.988s3.819.015,3.819.015v4.151s-.962,0-.962,0l-.004-2.128h-1.515s-.006,3.701-.006,3.701l4.075-.005-.007-7.279-6.944-.002v8.534s-9.923.002-9.923.002V1.902s7.005-.004,7.005-.004v6.951s-3.877.003-3.877.003v-4.13s.942.002.942.002l-.006,2.048,1.613-.003-.012-3.615-4.065-.002-.007,7.267h6.947s.006-8.519.006-8.519h14.433s0,2.936,0,2.936l-2.684.011s0-.897-.006-.897h1.758s0-1.125,0-1.125l-2.939.015.003,3.14,8.903.002-.008-3.155-2.971.006-.003,1.129,1.793.009-.006.875-2.686-.005-.003-2.94h5.29s0,10.34,0,10.34l-5.279.005Z" fill="#eeedee"/>
  </g>
  <rect x="30.821" y=".073" width="30.821" height="14.055" fill="#bababa"/>
  <g id="HoPe7S.tif-6" data-name="HoPe7S.tif">
    <path d="M54.963,12.244l-.014-2.925,2.727-.008v.831l-1.836.013.003,1.143,2.986-.005.003-3.115h-8.904s.002,3.118.002,3.118h2.958s0-1.141,0-1.141h-1.811s.005-.842.005-.842l2.716-.005-.006,2.933-11.505.002v-6.988s3.819.015,3.819.015v4.151s-.962,0-.962,0l-.004-2.128h-1.515s-.006,3.701-.006,3.701l4.075-.005-.007-7.279-6.944-.002v8.534s-9.923.002-9.923.002V1.902s7.005-.004,7.005-.004v6.951s-3.877.003-3.877.003v-4.13s.942.002.942.002l-.006,2.048,1.613-.003-.012-3.615-4.065-.002-.007,7.267h6.947s.006-8.519.006-8.519h14.433s0,2.936,0,2.936l-2.684.011s0-.897-.006-.897h1.758s0-1.125,0-1.125l-2.939.015.003,3.14,8.903.002-.008-3.155-2.971.006-.003,1.129,1.793.009-.006.875-2.686-.005-.003-2.94h5.29s0,10.34,0,10.34l-5.279.005Z" fill="#eeedee"/>
  </g>
  <rect y=".073" width="30.821" height="14.055" fill="#bababa"/>
  <g id="HoPe7S.tif-7" data-name="HoPe7S.tif">
    <path d="M24.141,12.244l-.014-2.925,2.727-.008v.831l-1.836.013.003,1.143,2.986-.005.003-3.115h-8.904s.002,3.118.002,3.118h2.958s0-1.141,0-1.141h-1.811s.005-.842.005-.842l2.716-.005-.006,2.933-11.505.002v-6.988s3.819.015,3.819.015v4.151s-.962,0-.962,0l-.004-2.128h-1.515s-.006,3.701-.006,3.701l4.075-.005-.007-7.279-6.944-.002v8.534S0,12.244,0,12.244V1.902s7.005-.004,7.005-.004v6.951s-3.877.003-3.877.003v-4.13s.942.002.942.002l-.006,2.048,1.613-.003-.012-3.615-4.065-.002-.007,7.267h6.947s.006-8.519.006-8.519h14.433s0,2.936,0,2.936l-2.684.011s0-.897-.006-.897h1.758s0-1.125,0-1.125l-2.939.015.003,3.14,8.903.002-.008-3.155-2.971.006-.003,1.129,1.793.009-.006.875-2.686-.005-.003-2.94h5.29s0,10.34,0,10.34l-5.279.005Z" fill="#eeedee"/>
  </g>
  <rect x="400.675" y=".073" width="30.821" height="14.055" fill="#bababa"/>
  <g id="HoPe7S.tif-8" data-name="HoPe7S.tif">
    <path d="M424.816,12.244l-.014-2.925,2.727-.008v.831l-1.836.013.003,1.143,2.986-.005.003-3.115h-8.904s.002,3.118.002,3.118h2.958s0-1.141,0-1.141h-1.811s.005-.842.005-.842l2.716-.005-.006,2.933-11.505.002v-6.988s3.819.015,3.819.015v4.151s-.962,0-.962,0l-.004-2.128h-1.515s-.006,3.701-.006,3.701l4.075-.005-.007-7.279-6.944-.002v8.534s-9.923.002-9.923.002V1.902s7.005-.004,7.005-.004v6.951s-3.877.003-3.877.003v-4.13s.942.002.942.002l-.006,2.048,1.613-.003-.012-3.615-4.065-.002-.007,7.267h6.947s.006-8.519.006-8.519h14.433s0,2.936,0,2.936l-2.684.011s0-.897-.006-.897h1.758s0-1.125,0-1.125l-2.939.015.003,3.14,8.903.002-.008-3.155-2.971.006-.003,1.129,1.793.009-.006.875-2.686-.005-.003-2.94h5.29s0,10.34,0,10.34l-5.279.005Z" fill="#eeedee"/>
  </g>
  <rect x="369.854" y=".073" width="30.821" height="14.055" fill="#bababa"/>
  <g id="HoPe7S.tif-9" data-name="HoPe7S.tif">
    <path d="M393.995,12.244l-.014-2.925,2.727-.008v.831l-1.836.013.003,1.143,2.986-.005.003-3.115h-8.904s.002,3.118.002,3.118h2.958s0-1.141,0-1.141h-1.811s.005-.842.005-.842l2.716-.005-.006,2.933-11.505.002v-6.988s3.819.015,3.819.015v4.151s-.962,0-.962,0l-.004-2.128h-1.515s-.006,3.701-.006,3.701l4.075-.005-.007-7.279-6.944-.002v8.534s-9.923.002-9.923.002V1.902s7.005-.004,7.005-.004v6.951s-3.877.003-3.877.003v-4.13s.942.002.942.002l-.006,2.048,1.613-.003-.012-3.615-4.065-.002-.007,7.267h6.947s.006-8.519.006-8.519h14.433s0,2.936,0,2.936l-2.684.011s0-.897-.006-.897h1.758s0-1.125,0-1.125l-2.939.015.003,3.14,8.903.002-.008-3.155-2.971.006-.003,1.129,1.793.009-.006.875-2.686-.005-.003-2.94h5.29s0,10.34,0,10.34l-5.279.005Z" fill="#eeedee"/>
  </g>
  <rect x="339.033" y=".073" width="30.821" height="14.055" fill="#bababa"/>
  <g id="HoPe7S.tif-10" data-name="HoPe7S.tif">
    <path d="M363.174,12.244l-.014-2.925,2.727-.008v.831l-1.836.013.003,1.143,2.986-.005.003-3.115h-8.904s.002,3.118.002,3.118h2.958s0-1.141,0-1.141h-1.811s.005-.842.005-.842l2.716-.005-.006,2.933-11.505.002v-6.988s3.819.015,3.819.015v4.151s-.962,0-.962,0l-.004-2.128h-1.515s-.006,3.701-.006,3.701l4.075-.005-.007-7.279-6.944-.002v8.534s-9.923.002-9.923.002V1.902s7.005-.004,7.005-.004v6.951s-3.877.003-3.877.003v-4.13s.942.002.942.002l-.006,2.048,1.613-.003-.012-3.615-4.065-.002-.007,7.267h6.947s.006-8.519.006-8.519h14.433s0,2.936,0,2.936l-2.684.011s0-.897-.006-.897h1.758s0-1.125,0-1.125l-2.939.015.003,3.14,8.903.002-.008-3.155-2.971.006-.003,1.129,1.793.009-.006.875-2.686-.005-.003-2.94h5.29s0,10.34,0,10.34l-5.279.005Z" fill="#eeedee"/>
  </g>
  <rect x="308.211" y=".073" width="30.821" height="14.055" fill="#bababa"/>
  <g id="HoPe7S.tif-11" data-name="HoPe7S.tif">
    <path d="M332.353,12.244l-.014-2.925,2.727-.008v.831l-1.836.013.003,1.143,2.986-.005.003-3.115h-8.904s.002,3.118.002,3.118h2.958s0-1.141,0-1.141h-1.811s.005-.842.005-.842l2.716-.005-.006,2.933-11.505.002v-6.988s3.819.015,3.819.015v4.151s-.962,0-.962,0l-.004-2.128h-1.515s-.006,3.701-.006,3.701l4.075-.005-.007-7.279-6.944-.002v8.534s-9.923.002-9.923.002V1.902s7.005-.004,7.005-.004v6.951s-3.877.003-3.877.003v-4.13s.942.002.942.002l-.006,2.048,1.613-.003-.012-3.615-4.065-.002-.007,7.267h6.947s.006-8.519.006-8.519h14.433s0,2.936,0,2.936l-2.684.011s0-.897-.006-.897h1.758s0-1.125,0-1.125l-2.939.015.003,3.14,8.903.002-.008-3.155-2.971.006-.003,1.129,1.793.009-.006.875-2.686-.005-.003-2.94h5.29s0,10.34,0,10.34l-5.279.005Z" fill="#eeedee"/>
  </g>
  <rect x="277.39" y=".073" width="30.821" height="14.055" fill="#bababa"/>
  <g id="HoPe7S.tif-12" data-name="HoPe7S.tif">
    <path d="M301.532,12.244l-.014-2.925,2.727-.008v.831l-1.836.013.003,1.143,2.986-.005.003-3.115h-8.904s.002,3.118.002,3.118h2.958s0-1.141,0-1.141h-1.811s.005-.842.005-.842l2.716-.005-.006,2.933-11.505.002v-6.988s3.819.015,3.819.015v4.151s-.962,0-.962,0l-.004-2.128h-1.515s-.006,3.701-.006,3.701l4.075-.005-.007-7.279-6.944-.002v8.534s-9.923.002-9.923.002V1.902s7.005-.004,7.005-.004v6.951s-3.877.003-3.877.003v-4.13s.942.002.942.002l-.006,2.048,1.613-.003-.012-3.615-4.065-.002-.007,7.267h6.947s.006-8.519.006-8.519h14.433s0,2.936,0,2.936l-2.684.011s0-.897-.006-.897h1.758s0-1.125,0-1.125l-2.939.015.003,3.14,8.903.002-.008-3.155-2.971.006-.003,1.129,1.793.009-.006.875-2.686-.005-.003-2.94h5.29s0,10.34,0,10.34l-5.279.005Z" fill="#eeedee"/>
  </g>
  <rect x="246.569" y=".073" width="30.821" height="14.055" fill="#bababa"/>
  <g id="HoPe7S.tif-13" data-name="HoPe7S.tif">
    <path d="M270.711,12.244l-.014-2.925,2.727-.008v.831l-1.836.013.003,1.143,2.986-.005.003-3.115h-8.904s.002,3.118.002,3.118h2.958s0-1.141,0-1.141h-1.811s.005-.842.005-.842l2.716-.005-.006,2.933-11.505.002v-6.988s3.819.015,3.819.015v4.151s-.962,0-.962,0l-.004-2.128h-1.515s-.006,3.701-.006,3.701l4.075-.005-.007-7.279-6.944-.002v8.534s-9.923.002-9.923.002V1.902s7.005-.004,7.005-.004v6.951s-3.877.003-3.877.003v-4.13s.942.002.942.002l-.006,2.048,1.613-.003-.012-3.615-4.065-.002-.007,7.267h6.947s.006-8.519.006-8.519h14.433s0,2.936,0,2.936l-2.684.011s0-.897-.006-.897h1.758s0-1.125,0-1.125l-2.939.015.003,3.14,8.903.002-.008-3.155-2.971.006-.003,1.129,1.793.009-.006.875-2.686-.005-.003-2.94h5.29s0,10.34,0,10.34l-5.279.005Z" fill="#eeedee"/>
  </g>
  <rect x="215.748" y=".073" width="30.821" height="14.055" fill="#bababa"/>
  <g id="HoPe7S.tif-14" data-name="HoPe7S.tif">
    <path d="M239.889,12.244l-.014-2.925,2.727-.008v.831l-1.836.013.003,1.143,2.986-.005.003-3.115h-8.904s.002,3.118.002,3.118h2.958s0-1.141,0-1.141h-1.811s.005-.842.005-.842l2.716-.005-.006,2.933-11.505.002v-6.988s3.819.015,3.819.015v4.151s-.962,0-.962,0l-.004-2.128h-1.515s-.006,3.701-.006,3.701l4.075-.005-.007-7.279-6.944-.002v8.534s-9.923.002-9.923.002V1.902s7.005-.004,7.005-.004v6.951s-3.877.003-3.877.003v-4.13s.942.002.942.002l-.006,2.048,1.613-.003-.012-3.615-4.065-.002-.007,7.267h6.947s.006-8.519.006-8.519h14.433s0,2.936,0,2.936l-2.684.011s0-.897-.006-.897h1.758s0-1.125,0-1.125l-2.939.015.003,3.14,8.903.002-.008-3.155-2.971.006-.003,1.129,1.793.009-.006.875-2.686-.005-.003-2.94h5.29s0,10.34,0,10.34l-5.279.005Z" fill="#eeedee"/>
  </g>
  <rect x="616.422" y=".044" width="30.821" height="14.055" fill="#bababa"/>
  <g id="HoPe7S.tif-15" data-name="HoPe7S.tif">
    <path d="M640.564,12.215l-.014-2.925,2.727-.008v.831l-1.836.013.003,1.143,2.986-.005.003-3.115h-8.904s.002,3.118.002,3.118h2.958s0-1.141,0-1.141h-1.811s.005-.842.005-.842l2.716-.005-.006,2.933-11.505.002v-6.988s3.819.015,3.819.015v4.151s-.962,0-.962,0l-.004-2.128h-1.515s-.006,3.701-.006,3.701l4.075-.005-.007-7.279-6.944-.002v8.534s-9.923.002-9.923.002V1.873s7.005-.004,7.005-.004v6.951s-3.877.003-3.877.003v-4.13s.942.002.942.002l-.006,2.048,1.613-.003-.012-3.615-4.065-.002-.007,7.267h6.947s.006-8.519.006-8.519h14.433s0,2.936,0,2.936l-2.684.011s0-.897-.006-.897h1.758s0-1.125,0-1.125l-2.939.015.003,3.14,8.903.002-.008-3.155-2.971.006-.003,1.129,1.793.009-.006.875-2.686-.005-.003-2.94h5.29s0,10.34,0,10.34l-5.279.005Z" fill="#eeedee"/>
  </g>
  <rect x="585.601" y=".044" width="30.821" height="14.055" fill="#bababa"/>
  <g id="HoPe7S.tif-16" data-name="HoPe7S.tif">
    <path d="M609.743,12.215l-.014-2.925,2.727-.008v.831l-1.836.013.003,1.143,2.986-.005.003-3.115h-8.904s.002,3.118.002,3.118h2.958s0-1.141,0-1.141h-1.811s.005-.842.005-.842l2.716-.005-.006,2.933-11.505.002v-6.988s3.819.015,3.819.015v4.151s-.962,0-.962,0l-.004-2.128h-1.515s-.006,3.701-.006,3.701l4.075-.005-.007-7.279-6.944-.002v8.534s-9.923.002-9.923.002V1.873s7.005-.004,7.005-.004v6.951s-3.877.003-3.877.003v-4.13s.942.002.942.002l-.006,2.048,1.613-.003-.012-3.615-4.065-.002-.007,7.267h6.947s.006-8.519.006-8.519h14.433s0,2.936,0,2.936l-2.684.011s0-.897-.006-.897h1.758s0-1.125,0-1.125l-2.939.015.003,3.14,8.903.002-.008-3.155-2.971.006-.003,1.129,1.793.009-.006.875-2.686-.005-.003-2.94h5.29s0,10.34,0,10.34l-5.279.005Z" fill="#eeedee"/>
  </g>
  <rect x="554.78" y=".044" width="30.821" height="14.055" fill="#bababa"/>
  <g id="HoPe7S.tif-17" data-name="HoPe7S.tif">
    <path d="M578.922,12.215l-.014-2.925,2.727-.008v.831l-1.836.013.003,1.143,2.986-.005.003-3.115h-8.904s.002,3.118.002,3.118h2.958s0-1.141,0-1.141h-1.811s.005-.842.005-.842l2.716-.005-.006,2.933-11.505.002v-6.988s3.819.015,3.819.015v4.151s-.962,0-.962,0l-.004-2.128h-1.515s-.006,3.701-.006,3.701l4.075-.005-.007-7.279-6.944-.002v8.534s-9.923.002-9.923.002V1.873s7.005-.004,7.005-.004v6.951s-3.877.003-3.877.003v-4.13s.942.002.942.002l-.006,2.048,1.613-.003-.012-3.615-4.065-.002-.007,7.267h6.947s.006-8.519.006-8.519h14.433s0,2.936,0,2.936l-2.684.011s0-.897-.006-.897h1.758s0-1.125,0-1.125l-2.939.015.003,3.14,8.903.002-.008-3.155-2.971.006-.003,1.129,1.793.009-.006.875-2.686-.005-.003-2.94h5.29s0,10.34,0,10.34l-5.279.005Z" fill="#eeedee"/>
  </g>
  <rect x="523.959" y=".044" width="30.821" height="14.055" fill="#bababa"/>
  <g id="HoPe7S.tif-18" data-name="HoPe7S.tif">
    <path d="M548.1,12.215l-.014-2.925,2.727-.008v.831l-1.836.013.003,1.143,2.986-.005.003-3.115h-8.904s.002,3.118.002,3.118h2.958s0-1.141,0-1.141h-1.811s.005-.842.005-.842l2.716-.005-.006,2.933-11.505.002v-6.988s3.819.015,3.819.015v4.151s-.962,0-.962,0l-.004-2.128h-1.515s-.006,3.701-.006,3.701l4.075-.005-.007-7.279-6.944-.002v8.534s-9.923.002-9.923.002V1.873s7.005-.004,7.005-.004v6.951s-3.877.003-3.877.003v-4.13s.942.002.942.002l-.006,2.048,1.613-.003-.012-3.615-4.065-.002-.007,7.267h6.947s.006-8.519.006-8.519h14.433s0,2.936,0,2.936l-2.684.011s0-.897-.006-.897h1.758s0-1.125,0-1.125l-2.939.015.003,3.14,8.903.002-.008-3.155-2.971.006-.003,1.129,1.793.009-.006.875-2.686-.005-.003-2.94h5.29s0,10.34,0,10.34l-5.279.005Z" fill="#eeedee"/>
  </g>
  <rect x="493.138" y=".044" width="30.821" height="14.055" fill="#bababa"/>
  <g id="HoPe7S.tif-19" data-name="HoPe7S.tif">
    <path d="M517.279,12.215l-.014-2.925,2.727-.008v.831l-1.836.013.003,1.143,2.986-.005.003-3.115h-8.904s.002,3.118.002,3.118h2.958s0-1.141,0-1.141h-1.811s.005-.842.005-.842l2.716-.005-.006,2.933-11.505.002v-6.988s3.819.015,3.819.015v4.151s-.962,0-.962,0l-.004-2.128h-1.515s-.006,3.701-.006,3.701l4.075-.005-.007-7.279-6.944-.002v8.534s-9.923.002-9.923.002V1.873s7.005-.004,7.005-.004v6.951s-3.877.003-3.877.003v-4.13s.942.002.942.002l-.006,2.048,1.613-.003-.012-3.615-4.065-.002-.007,7.267h6.947s.006-8.519.006-8.519h14.433s0,2.936,0,2.936l-2.684.011s0-.897-.006-.897h1.758s0-1.125,0-1.125l-2.939.015.003,3.14,8.903.002-.008-3.155-2.971.006-.003,1.129,1.793.009-.006.875-2.686-.005-.003-2.94h5.29s0,10.34,0,10.34l-5.279.005Z" fill="#eeedee"/>
  </g>
  <rect x="462.317" y=".044" width="30.821" height="14.055" fill="#bababa"/>
  <g id="HoPe7S.tif-20" data-name="HoPe7S.tif">
    <path d="M486.458,12.215l-.014-2.925,2.727-.008v.831l-1.836.013.003,1.143,2.986-.005.003-3.115h-8.904s.002,3.118.002,3.118h2.958s0-1.141,0-1.141h-1.811s.005-.842.005-.842l2.716-.005-.006,2.933-11.505.002v-6.988s3.819.015,3.819.015v4.151s-.962,0-.962,0l-.004-2.128h-1.515s-.006,3.701-.006,3.701l4.075-.005-.007-7.279-6.944-.002v8.534s-9.923.002-9.923.002V1.873s7.005-.004,7.005-.004v6.951s-3.877.003-3.877.003v-4.13s.942.002.942.002l-.006,2.048,1.613-.003-.012-3.615-4.065-.002-.007,7.267h6.947s.006-8.519.006-8.519h14.433s0,2.936,0,2.936l-2.684.011s0-.897-.006-.897h1.758s0-1.125,0-1.125l-2.939.015.003,3.14,8.903.002-.008-3.155-2.971.006-.003,1.129,1.793.009-.006.875-2.686-.005-.003-2.94h5.29s0,10.34,0,10.34l-5.279.005Z" fill="#eeedee"/>
  </g>
  <rect x="431.495" y=".044" width="30.821" height="14.055" fill="#bababa"/>
  <g id="HoPe7S.tif-21" data-name="HoPe7S.tif">
    <path d="M455.637,12.215l-.014-2.925,2.727-.008v.831l-1.836.013.003,1.143,2.986-.005.003-3.115h-8.904s.002,3.118.002,3.118h2.958s0-1.141,0-1.141h-1.811s.005-.842.005-.842l2.716-.005-.006,2.933-11.505.002v-6.988s3.819.015,3.819.015v4.151s-.962,0-.962,0l-.004-2.128h-1.515s-.006,3.701-.006,3.701l4.075-.005-.007-7.279-6.944-.002v8.534s-9.923.002-9.923.002V1.873s7.005-.004,7.005-.004v6.951s-3.877.003-3.877.003v-4.13s.942.002.942.002l-.006,2.048,1.613-.003-.012-3.615-4.065-.002-.007,7.267h6.947s.006-8.519.006-8.519h14.433s0,2.936,0,2.936l-2.684.011s0-.897-.006-.897h1.758s0-1.125,0-1.125l-2.939.015.003,3.14,8.903.002-.008-3.155-2.971.006-.003,1.129,1.793.009-.006.875-2.686-.005-.003-2.94h5.29s0,10.34,0,10.34l-5.279.005Z" fill="#eeedee"/>
  </g>
  <rect x="832.17" y=".044" width="30.821" height="14.055" fill="#bababa"/>
  <g id="HoPe7S.tif-22" data-name="HoPe7S.tif">
    <path d="M856.311,12.215l-.014-2.925,2.727-.008v.831l-1.836.013.003,1.143,2.986-.005.003-3.115h-8.904s.002,3.118.002,3.118h2.958s0-1.141,0-1.141h-1.811s.005-.842.005-.842l2.716-.005-.006,2.933-11.505.002v-6.988s3.819.015,3.819.015v4.151s-.962,0-.962,0l-.004-2.128h-1.515s-.006,3.701-.006,3.701l4.075-.005-.007-7.279-6.944-.002v8.534s-9.923.002-9.923.002V1.873s7.005-.004,7.005-.004v6.951s-3.877.003-3.877.003v-4.13s.942.002.942.002l-.006,2.048,1.613-.003-.012-3.615-4.065-.002-.007,7.267h6.947s.006-8.519.006-8.519h14.433s0,2.936,0,2.936l-2.684.011s0-.897-.006-.897h1.758s0-1.125,0-1.125l-2.939.015.003,3.14,8.903.002-.008-3.155-2.971.006-.003,1.129,1.793.009-.006.875-2.686-.005-.003-2.94h5.29s0,10.34,0,10.34l-5.279.005Z" fill="#eeedee"/>
  </g>
  <rect x="801.349" y=".044" width="30.821" height="14.055" fill="#bababa"/>
  <g id="HoPe7S.tif-23" data-name="HoPe7S.tif">
    <path d="M825.491,12.215l-.014-2.925,2.727-.008v.831l-1.836.013.003,1.143,2.986-.005.003-3.115h-8.904s.002,3.118.002,3.118h2.958s0-1.141,0-1.141h-1.811s.005-.842.005-.842l2.716-.005-.006,2.933-11.505.002v-6.988s3.819.015,3.819.015v4.151s-.962,0-.962,0l-.004-2.128h-1.515s-.006,3.701-.006,3.701l4.075-.005-.007-7.279-6.944-.002v8.534s-9.923.002-9.923.002V1.873s7.005-.004,7.005-.004v6.951s-3.877.003-3.877.003v-4.13s.942.002.942.002l-.006,2.048,1.613-.003-.012-3.615-4.065-.002-.007,7.267h6.947s.006-8.519.006-8.519h14.433s0,2.936,0,2.936l-2.684.011s0-.897-.006-.897h1.758s0-1.125,0-1.125l-2.939.015.003,3.14,8.903.002-.008-3.155-2.971.006-.003,1.129,1.793.009-.006.875-2.686-.005-.003-2.94h5.29s0,10.34,0,10.34l-5.279.005Z" fill="#eeedee"/>
  </g>
  <rect x="770.528" y=".044" width="30.821" height="14.055" fill="#bababa"/>
  <g id="HoPe7S.tif-24" data-name="HoPe7S.tif">
    <path d="M794.669,12.215l-.014-2.925,2.727-.008v.831l-1.836.013.003,1.143,2.986-.005.003-3.115h-8.904s.002,3.118.002,3.118h2.958s0-1.141,0-1.141h-1.811s.005-.842.005-.842l2.716-.005-.006,2.933-11.505.002v-6.988s3.819.015,3.819.015v4.151s-.962,0-.962,0l-.004-2.128h-1.515s-.006,3.701-.006,3.701l4.075-.005-.007-7.279-6.944-.002v8.534s-9.923.002-9.923.002V1.873s7.005-.004,7.005-.004v6.951s-3.877.003-3.877.003v-4.13s.942.002.942.002l-.006,2.048,1.613-.003-.012-3.615-4.065-.002-.007,7.267h6.947s.006-8.519.006-8.519h14.433s0,2.936,0,2.936l-2.684.011s0-.897-.006-.897h1.758s0-1.125,0-1.125l-2.939.015.003,3.14,8.903.002-.008-3.155-2.971.006-.003,1.129,1.793.009-.006.875-2.686-.005-.003-2.94h5.29s0,10.34,0,10.34l-5.279.005Z" fill="#eeedee"/>
  </g>
  <rect x="739.707" y=".044" width="30.821" height="14.055" fill="#bababa"/>
  <g id="HoPe7S.tif-25" data-name="HoPe7S.tif">
    <path d="M763.848,12.215l-.014-2.925,2.727-.008v.831l-1.836.013.003,1.143,2.986-.005.003-3.115h-8.904s.002,3.118.002,3.118h2.958s0-1.141,0-1.141h-1.811s.005-.842.005-.842l2.716-.005-.006,2.933-11.505.002v-6.988s3.819.015,3.819.015v4.151s-.962,0-.962,0l-.004-2.128h-1.515s-.006,3.701-.006,3.701l4.075-.005-.007-7.279-6.944-.002v8.534s-9.923.002-9.923.002V1.873s7.005-.004,7.005-.004v6.951s-3.877.003-3.877.003v-4.13s.942.002.942.002l-.006,2.048,1.613-.003-.012-3.615-4.065-.002-.007,7.267h6.947s.006-8.519.006-8.519h14.433s0,2.936,0,2.936l-2.684.011s0-.897-.006-.897h1.758s0-1.125,0-1.125l-2.939.015.003,3.14,8.903.002-.008-3.155-2.971.006-.003,1.129,1.793.009-.006.875-2.686-.005-.003-2.94h5.29s0,10.34,0,10.34l-5.279.005Z" fill="#eeedee"/>
  </g>
  <rect x="708.886" y=".044" width="30.821" height="14.055" fill="#bababa"/>
  <g id="HoPe7S.tif-26" data-name="HoPe7S.tif">
    <path d="M733.027,12.215l-.014-2.925,2.727-.008v.831l-1.836.013.003,1.143,2.986-.005.003-3.115h-8.904s.002,3.118.002,3.118h2.958s0-1.141,0-1.141h-1.811s.005-.842.005-.842l2.716-.005-.006,2.933-11.505.002v-6.988s3.819.015,3.819.015v4.151s-.962,0-.962,0l-.004-2.128h-1.515s-.006,3.701-.006,3.701l4.075-.005-.007-7.279-6.944-.002v8.534s-9.923.002-9.923.002V1.873s7.005-.004,7.005-.004v6.951s-3.877.003-3.877.003v-4.13s.942.002.942.002l-.006,2.048,1.613-.003-.012-3.615-4.065-.002-.007,7.267h6.947s.006-8.519.006-8.519h14.433s0,2.936,0,2.936l-2.684.011s0-.897-.006-.897h1.758s0-1.125,0-1.125l-2.939.015.003,3.14,8.903.002-.008-3.155-2.971.006-.003,1.129,1.793.009-.006.875-2.686-.005-.003-2.94h5.29s0,10.34,0,10.34l-5.279.005Z" fill="#eeedee"/>
  </g>
  <rect x="678.065" y=".044" width="30.821" height="14.055" fill="#bababa"/>
  <g id="HoPe7S.tif-27" data-name="HoPe7S.tif">
    <path d="M702.206,12.215l-.014-2.925,2.727-.008v.831l-1.836.013.003,1.143,2.986-.005.003-3.115h-8.904s.002,3.118.002,3.118h2.958s0-1.141,0-1.141h-1.811s.005-.842.005-.842l2.716-.005-.006,2.933-11.505.002v-6.988s3.819.015,3.819.015v4.151s-.962,0-.962,0l-.004-2.128h-1.515s-.006,3.701-.006,3.701l4.075-.005-.007-7.279-6.944-.002v8.534s-9.923.002-9.923.002V1.873s7.005-.004,7.005-.004v6.951s-3.877.003-3.877.003v-4.13s.942.002.942.002l-.006,2.048,1.613-.003-.012-3.615-4.065-.002-.007,7.267h6.947s.006-8.519.006-8.519h14.433s0,2.936,0,2.936l-2.684.011s0-.897-.006-.897h1.758s0-1.125,0-1.125l-2.939.015.003,3.14,8.903.002-.008-3.155-2.971.006-.003,1.129,1.793.009-.006.875-2.686-.005-.003-2.94h5.29s0,10.34,0,10.34l-5.279.005Z" fill="#eeedee"/>
  </g>
  <rect x="647.243" y=".044" width="30.821" height="14.055" fill="#bababa"/>
  <g id="HoPe7S.tif-28" data-name="HoPe7S.tif">
    <path d="M671.385,12.215l-.014-2.925,2.727-.008v.831l-1.836.013.003,1.143,2.986-.005.003-3.115h-8.904s.002,3.118.002,3.118h2.958s0-1.141,0-1.141h-1.811s.005-.842.005-.842l2.716-.005-.006,2.933-11.505.002v-6.988s3.819.015,3.819.015v4.151s-.962,0-.962,0l-.004-2.128h-1.515s-.006,3.701-.006,3.701l4.075-.005-.007-7.279-6.944-.002v8.534s-9.923.002-9.923.002V1.873s7.005-.004,7.005-.004v6.951s-3.877.003-3.877.003v-4.13s.942.002.942.002l-.006,2.048,1.613-.003-.012-3.615-4.065-.002-.007,7.267h6.947s.006-8.519.006-8.519h14.433s0,2.936,0,2.936l-2.684.011s0-.897-.006-.897h1.758s0-1.125,0-1.125l-2.939.015.003,3.14,8.903.002-.008-3.155-2.971.006-.003,1.129,1.793.009-.006.875-2.686-.005-.003-2.94h5.29s0,10.34,0,10.34l-5.279.005Z" fill="#eeedee"/>
  </g>
  <rect x="1047.918" y=".029" width="30.821" height="14.055" fill="#bababa"/>
  <g id="HoPe7S.tif-29" data-name="HoPe7S.tif">
    <path d="M1072.059,12.2l-.014-2.925,2.727-.008v.831l-1.836.013.003,1.143,2.986-.005.003-3.115h-8.904s.002,3.118.002,3.118h2.958s0-1.141,0-1.141h-1.811s.005-.842.005-.842l2.716-.005-.006,2.933-11.505.002v-6.988s3.819.015,3.819.015v4.151s-.962,0-.962,0l-.004-2.128h-1.515s-.006,3.701-.006,3.701l4.075-.005-.007-7.279-6.944-.002v8.534s-9.923.002-9.923.002V1.858s7.005-.004,7.005-.004v6.951s-3.877.003-3.877.003v-4.13s.942.002.942.002l-.006,2.048,1.613-.003-.012-3.615-4.065-.002-.007,7.267h6.947s.006-8.519.006-8.519h14.433s0,2.936,0,2.936l-2.684.011s0-.897-.006-.897h1.758s0-1.125,0-1.125l-2.939.015.003,3.14,8.903.002-.008-3.155-2.971.006-.003,1.129,1.793.009-.006.875-2.686-.005-.003-2.94h5.29s0,10.34,0,10.34l-5.279.005Z" fill="#eeedee"/>
  </g>
  <rect x="1017.097" y=".029" width="30.821" height="14.055" fill="#bababa"/>
  <g id="HoPe7S.tif-30" data-name="HoPe7S.tif">
    <path d="M1041.238,12.2l-.014-2.925,2.727-.008v.831l-1.836.013.003,1.143,2.986-.005.003-3.115h-8.904s.002,3.118.002,3.118h2.958s0-1.141,0-1.141h-1.811s.005-.842.005-.842l2.716-.005-.006,2.933-11.505.002v-6.988s3.819.015,3.819.015v4.151s-.962,0-.962,0l-.004-2.128h-1.515s-.006,3.701-.006,3.701l4.075-.005-.007-7.279-6.944-.002v8.534s-9.923.002-9.923.002V1.858s7.005-.004,7.005-.004v6.951s-3.877.003-3.877.003v-4.13s.942.002.942.002l-.006,2.048,1.613-.003-.012-3.615-4.065-.002-.007,7.267h6.947s.006-8.519.006-8.519h14.433s0,2.936,0,2.936l-2.684.011s0-.897-.006-.897h1.758s0-1.125,0-1.125l-2.939.015.003,3.14,8.903.002-.008-3.155-2.971.006-.003,1.129,1.793.009-.006.875-2.686-.005-.003-2.94h5.29s0,10.34,0,10.34l-5.279.005Z" fill="#eeedee"/>
  </g>
  <rect x="986.276" y=".029" width="30.821" height="14.055" fill="#bababa"/>
  <g id="HoPe7S.tif-31" data-name="HoPe7S.tif">
    <path d="M1010.417,12.2l-.014-2.925,2.727-.008v.831l-1.836.013.003,1.143,2.986-.005.003-3.115h-8.904s.002,3.118.002,3.118h2.958s0-1.141,0-1.141h-1.811s.005-.842.005-.842l2.716-.005-.006,2.933-11.505.002v-6.988s3.819.015,3.819.015v4.151s-.962,0-.962,0l-.004-2.128h-1.515s-.006,3.701-.006,3.701l4.075-.005-.007-7.279-6.944-.002v8.534s-9.923.002-9.923.002V1.858s7.005-.004,7.005-.004v6.951s-3.877.003-3.877.003v-4.13s.942.002.942.002l-.006,2.048,1.613-.003-.012-3.615-4.065-.002-.007,7.267h6.947s.006-8.519.006-8.519h14.433s0,2.936,0,2.936l-2.684.011s0-.897-.006-.897h1.758s0-1.125,0-1.125l-2.939.015.003,3.14,8.903.002-.008-3.155-2.971.006-.003,1.129,1.793.009-.006.875-2.686-.005-.003-2.94h5.29s0,10.34,0,10.34l-5.279.005Z" fill="#eeedee"/>
  </g>
  <rect x="955.454" y=".029" width="30.821" height="14.055" fill="#bababa"/>
  <g id="HoPe7S.tif-32" data-name="HoPe7S.tif">
    <path d="M979.596,12.2l-.014-2.925,2.727-.008v.831l-1.836.013.003,1.143,2.986-.005.003-3.115h-8.904s.002,3.118.002,3.118h2.958s0-1.141,0-1.141h-1.811s.005-.842.005-.842l2.716-.005-.006,2.933-11.505.002v-6.988s3.819.015,3.819.015v4.151s-.962,0-.962,0l-.004-2.128h-1.515s-.006,3.701-.006,3.701l4.075-.005-.007-7.279-6.944-.002v8.534s-9.923.002-9.923.002V1.858s7.005-.004,7.005-.004v6.951s-3.877.003-3.877.003v-4.13s.942.002.942.002l-.006,2.048,1.613-.003-.012-3.615-4.065-.002-.007,7.267h6.947s.006-8.519.006-8.519h14.433s0,2.936,0,2.936l-2.684.011s0-.897-.006-.897h1.758s0-1.125,0-1.125l-2.939.015.003,3.14,8.903.002-.008-3.155-2.971.006-.003,1.129,1.793.009-.006.875-2.686-.005-.003-2.94h5.29s0,10.34,0,10.34l-5.279.005Z" fill="#eeedee"/>
  </g>
  <rect x="924.633" y=".029" width="30.821" height="14.055" fill="#bababa"/>
  <g id="HoPe7S.tif-33" data-name="HoPe7S.tif">
    <path d="M948.775,12.2l-.014-2.925,2.727-.008v.831l-1.836.013.003,1.143,2.986-.005.003-3.115h-8.904s.002,3.118.002,3.118h2.958s0-1.141,0-1.141h-1.811s.005-.842.005-.842l2.716-.005-.006,2.933-11.505.002v-6.988s3.819.015,3.819.015v4.151s-.962,0-.962,0l-.004-2.128h-1.515s-.006,3.701-.006,3.701l4.075-.005-.007-7.279-6.944-.002v8.534s-9.923.002-9.923.002V1.858s7.005-.004,7.005-.004v6.951s-3.877.003-3.877.003v-4.13s.942.002.942.002l-.006,2.048,1.613-.003-.012-3.615-4.065-.002-.007,7.267h6.947s.006-8.519.006-8.519h14.433s0,2.936,0,2.936l-2.684.011s0-.897-.006-.897h1.758s0-1.125,0-1.125l-2.939.015.003,3.14,8.903.002-.008-3.155-2.971.006-.003,1.129,1.793.009-.006.875-2.686-.005-.003-2.94h5.29s0,10.34,0,10.34l-5.279.005Z" fill="#eeedee"/>
  </g>
  <rect x="893.812" y=".029" width="30.821" height="14.055" fill="#bababa"/>
  <g id="HoPe7S.tif-34" data-name="HoPe7S.tif">
    <path d="M917.954,12.2l-.014-2.925,2.727-.008v.831l-1.836.013.003,1.143,2.986-.005.003-3.115h-8.904s.002,3.118.002,3.118h2.958s0-1.141,0-1.141h-1.811s.005-.842.005-.842l2.716-.005-.006,2.933-11.505.002v-6.988s3.819.015,3.819.015v4.151s-.962,0-.962,0l-.004-2.128h-1.515s-.006,3.701-.006,3.701l4.075-.005-.007-7.279-6.944-.002v8.534s-9.923.002-9.923.002V1.858s7.005-.004,7.005-.004v6.951s-3.877.003-3.877.003v-4.13s.942.002.942.002l-.006,2.048,1.613-.003-.012-3.615-4.065-.002-.007,7.267h6.947s.006-8.519.006-8.519h14.433s0,2.936,0,2.936l-2.684.011s0-.897-.006-.897h1.758s0-1.125,0-1.125l-2.939.015.003,3.14,8.903.002-.008-3.155-2.971.006-.003,1.129,1.793.009-.006.875-2.686-.005-.003-2.94h5.29s0,10.34,0,10.34l-5.279.005Z" fill="#eeedee"/>
  </g>
  <rect x="862.991" y=".029" width="30.821" height="14.055" fill="#bababa"/>
  <g id="HoPe7S.tif-35" data-name="HoPe7S.tif">
    <path d="M887.132,12.2l-.014-2.925,2.727-.008v.831l-1.836.013.003,1.143,2.986-.005.003-3.115h-8.904s.002,3.118.002,3.118h2.958s0-1.141,0-1.141h-1.811s.005-.842.005-.842l2.716-.005-.006,2.933-11.505.002v-6.988s3.819.015,3.819.015v4.151s-.962,0-.962,0l-.004-2.128h-1.515s-.006,3.701-.006,3.701l4.075-.005-.007-7.279-6.944-.002v8.534s-9.923.002-9.923.002V1.858s7.005-.004,7.005-.004v6.951s-3.877.003-3.877.003v-4.13s.942.002.942.002l-.006,2.048,1.613-.003-.012-3.615-4.065-.002-.007,7.267h6.947s.006-8.519.006-8.519h14.433s0,2.936,0,2.936l-2.684.011s0-.897-.006-.897h1.758s0-1.125,0-1.125l-2.939.015.003,3.14,8.903.002-.008-3.155-2.971.006-.003,1.129,1.793.009-.006.875-2.686-.005-.003-2.94h5.29s0,10.34,0,10.34l-5.279.005Z" fill="#eeedee"/>
  </g>
  <rect x="1263.665" y=".029" width="30.821" height="14.055" fill="#bababa"/>
  <g id="HoPe7S.tif-36" data-name="HoPe7S.tif">
    <path d="M1287.807,12.2l-.014-2.925,2.727-.008v.831l-1.836.013.003,1.143,2.986-.005.003-3.115h-8.904s.002,3.118.002,3.118h2.958s0-1.141,0-1.141h-1.811s.005-.842.005-.842l2.716-.005-.006,2.933-11.505.002v-6.988s3.819.015,3.819.015v4.151s-.962,0-.962,0l-.004-2.128h-1.515s-.006,3.701-.006,3.701l4.075-.005-.007-7.279-6.944-.002v8.534s-9.923.002-9.923.002V1.858s7.005-.004,7.005-.004v6.951s-3.877.003-3.877.003v-4.13s.942.002.942.002l-.006,2.048,1.613-.003-.012-3.615-4.065-.002-.007,7.267h6.947s.006-8.519.006-8.519h14.433s0,2.936,0,2.936l-2.684.011s0-.897-.006-.897h1.758s0-1.125,0-1.125l-2.939.015.003,3.14,8.903.002-.008-3.155-2.971.006-.003,1.129,1.793.009-.006.875-2.686-.005-.003-2.94h5.29s0,10.34,0,10.34l-5.279.005Z" fill="#eeedee"/>
  </g>
  <rect x="1232.845" y=".029" width="30.821" height="14.055" fill="#bababa"/>
  <g id="HoPe7S.tif-37" data-name="HoPe7S.tif">
    <path d="M1256.986,12.2l-.014-2.925,2.727-.008v.831l-1.836.013.003,1.143,2.986-.005.003-3.115h-8.904s.002,3.118.002,3.118h2.958s0-1.141,0-1.141h-1.811s.005-.842.005-.842l2.716-.005-.006,2.933-11.505.002v-6.988s3.819.015,3.819.015v4.151s-.962,0-.962,0l-.004-2.128h-1.515s-.006,3.701-.006,3.701l4.075-.005-.007-7.279-6.944-.002v8.534s-9.923.002-9.923.002V1.858s7.005-.004,7.005-.004v6.951s-3.877.003-3.877.003v-4.13s.942.002.942.002l-.006,2.048,1.613-.003-.012-3.615-4.065-.002-.007,7.267h6.947s.006-8.519.006-8.519h14.433s0,2.936,0,2.936l-2.684.011s0-.897-.006-.897h1.758s0-1.125,0-1.125l-2.939.015.003,3.14,8.903.002-.008-3.155-2.971.006-.003,1.129,1.793.009-.006.875-2.686-.005-.003-2.94h5.29s0,10.34,0,10.34l-5.279.005Z" fill="#eeedee"/>
  </g>
  <rect x="1202.023" y=".029" width="30.821" height="14.055" fill="#bababa"/>
  <g id="HoPe7S.tif-38" data-name="HoPe7S.tif">
    <path d="M1226.165,12.2l-.014-2.925,2.727-.008v.831l-1.836.013.003,1.143,2.986-.005.003-3.115h-8.904s.002,3.118.002,3.118h2.958s0-1.141,0-1.141h-1.811s.005-.842.005-.842l2.716-.005-.006,2.933-11.505.002v-6.988s3.819.015,3.819.015v4.151s-.962,0-.962,0l-.004-2.128h-1.515s-.006,3.701-.006,3.701l4.075-.005-.007-7.279-6.944-.002v8.534s-9.923.002-9.923.002V1.858s7.005-.004,7.005-.004v6.951s-3.877.003-3.877.003v-4.13s.942.002.942.002l-.006,2.048,1.613-.003-.012-3.615-4.065-.002-.007,7.267h6.947s.006-8.519.006-8.519h14.433s0,2.936,0,2.936l-2.684.011s0-.897-.006-.897h1.758s0-1.125,0-1.125l-2.939.015.003,3.14,8.903.002-.008-3.155-2.971.006-.003,1.129,1.793.009-.006.875-2.686-.005-.003-2.94h5.29s0,10.34,0,10.34l-5.279.005Z" fill="#eeedee"/>
  </g>
  <rect x="1171.202" y=".029" width="30.821" height="14.055" fill="#bababa"/>
  <g id="HoPe7S.tif-39" data-name="HoPe7S.tif">
    <path d="M1195.343,12.2l-.014-2.925,2.727-.008v.831l-1.836.013.003,1.143,2.986-.005.003-3.115h-8.904s.002,3.118.002,3.118h2.958s0-1.141,0-1.141h-1.811s.005-.842.005-.842l2.716-.005-.006,2.933-11.505.002v-6.988s3.819.015,3.819.015v4.151s-.962,0-.962,0l-.004-2.128h-1.515s-.006,3.701-.006,3.701l4.075-.005-.007-7.279-6.944-.002v8.534s-9.923.002-9.923.002V1.858s7.005-.004,7.005-.004v6.951s-3.877.003-3.877.003v-4.13s.942.002.942.002l-.006,2.048,1.613-.003-.012-3.615-4.065-.002-.007,7.267h6.947s.006-8.519.006-8.519h14.433s0,2.936,0,2.936l-2.684.011s0-.897-.006-.897h1.758s0-1.125,0-1.125l-2.939.015.003,3.14,8.903.002-.008-3.155-2.971.006-.003,1.129,1.793.009-.006.875-2.686-.005-.003-2.94h5.29s0,10.34,0,10.34l-5.279.005Z" fill="#eeedee"/>
  </g>
  <rect x="1140.381" y=".029" width="30.821" height="14.055" fill="#bababa"/>
  <g id="HoPe7S.tif-40" data-name="HoPe7S.tif">
    <path d="M1164.523,12.2l-.014-2.925,2.727-.008v.831l-1.836.013.003,1.143,2.986-.005.003-3.115h-8.904s.002,3.118.002,3.118h2.958s0-1.141,0-1.141h-1.811s.005-.842.005-.842l2.716-.005-.006,2.933-11.505.002v-6.988s3.819.015,3.819.015v4.151s-.962,0-.962,0l-.004-2.128h-1.515s-.006,3.701-.006,3.701l4.075-.005-.007-7.279-6.944-.002v8.534s-9.923.002-9.923.002V1.858s7.005-.004,7.005-.004v6.951s-3.877.003-3.877.003v-4.13s.942.002.942.002l-.006,2.048,1.613-.003-.012-3.615-4.065-.002-.007,7.267h6.947s.006-8.519.006-8.519h14.433s0,2.936,0,2.936l-2.684.011s0-.897-.006-.897h1.758s0-1.125,0-1.125l-2.939.015.003,3.14,8.903.002-.008-3.155-2.971.006-.003,1.129,1.793.009-.006.875-2.686-.005-.003-2.94h5.29s0,10.34,0,10.34l-5.279.005Z" fill="#eeedee"/>
  </g>
  <rect x="1109.56" y=".029" width="30.821" height="14.055" fill="#bababa"/>
  <g id="HoPe7S.tif-41" data-name="HoPe7S.tif">
    <path d="M1133.701,12.2l-.014-2.925,2.727-.008v.831l-1.836.013.003,1.143,2.986-.005.003-3.115h-8.904s.002,3.118.002,3.118h2.958s0-1.141,0-1.141h-1.811s.005-.842.005-.842l2.716-.005-.006,2.933-11.505.002v-6.988s3.819.015,3.819.015v4.151s-.962,0-.962,0l-.004-2.128h-1.515s-.006,3.701-.006,3.701l4.075-.005-.007-7.279-6.944-.002v8.534s-9.923.002-9.923.002V1.858s7.005-.004,7.005-.004v6.951s-3.877.003-3.877.003v-4.13s.942.002.942.002l-.006,2.048,1.613-.003-.012-3.615-4.065-.002-.007,7.267h6.947s.006-8.519.006-8.519h14.433s0,2.936,0,2.936l-2.684.011s0-.897-.006-.897h1.758s0-1.125,0-1.125l-2.939.015.003,3.14,8.903.002-.008-3.155-2.971.006-.003,1.129,1.793.009-.006.875-2.686-.005-.003-2.94h5.29s0,10.34,0,10.34l-5.279.005Z" fill="#eeedee"/>
  </g>
  <rect x="1078.739" y=".029" width="30.821" height="14.055" fill="#bababa"/>
  <g id="HoPe7S.tif-42" data-name="HoPe7S.tif">
    <path d="M1102.88,12.2l-.014-2.925,2.727-.008v.831l-1.836.013.003,1.143,2.986-.005.003-3.115h-8.904s.002,3.118.002,3.118h2.958s0-1.141,0-1.141h-1.811s.005-.842.005-.842l2.716-.005-.006,2.933-11.505.002v-6.988s3.819.015,3.819.015v4.151s-.962,0-.962,0l-.004-2.128h-1.515s-.006,3.701-.006,3.701l4.075-.005-.007-7.279-6.944-.002v8.534s-9.923.002-9.923.002V1.858s7.005-.004,7.005-.004v6.951s-3.877.003-3.877.003v-4.13s.942.002.942.002l-.006,2.048,1.613-.003-.012-3.615-4.065-.002-.007,7.267h6.947s.006-8.519.006-8.519h14.433s0,2.936,0,2.936l-2.684.011s0-.897-.006-.897h1.758s0-1.125,0-1.125l-2.939.015.003,3.14,8.903.002-.008-3.155-2.971.006-.003,1.129,1.793.009-.006.875-2.686-.005-.003-2.94h5.29s0,10.34,0,10.34l-5.279.005Z" fill="#eeedee"/>
  </g>
  <rect x="1479.413" width="30.821" height="14.055" fill="#bababa"/>
  <g id="HoPe7S.tif-43" data-name="HoPe7S.tif">
    <path d="M1503.554,12.171l-.014-2.925,2.727-.008v.831l-1.836.013.003,1.143,2.986-.005.003-3.115h-8.904s.002,3.118.002,3.118h2.958s0-1.141,0-1.141h-1.811s.005-.842.005-.842l2.716-.005-.006,2.933-11.505.002v-6.988s3.819.015,3.819.015v4.151s-.962,0-.962,0l-.004-2.128h-1.515s-.006,3.701-.006,3.701l4.075-.005-.007-7.279-6.944-.002v8.534s-9.923.002-9.923.002V1.829s7.005-.004,7.005-.004v6.951s-3.877.003-3.877.003v-4.13s.942.002.942.002l-.006,2.048,1.613-.003-.012-3.615-4.065-.002-.007,7.267h6.947s.006-8.519.006-8.519h14.433s0,2.936,0,2.936l-2.684.011s0-.897-.006-.897h1.758s0-1.125,0-1.125l-2.939.015.003,3.14,8.903.002-.008-3.155-2.971.006-.003,1.129,1.793.009-.006.875-2.686-.005-.003-2.94h5.29s0,10.34,0,10.34l-5.279.005Z" fill="#eeedee"/>
  </g>
  <rect x="1448.592" width="30.821" height="14.055" fill="#bababa"/>
  <g id="HoPe7S.tif-44" data-name="HoPe7S.tif">
    <path d="M1472.734,12.171l-.014-2.925,2.727-.008v.831l-1.836.013.003,1.143,2.986-.005.003-3.115h-8.904s.002,3.118.002,3.118h2.958s0-1.141,0-1.141h-1.811s.005-.842.005-.842l2.716-.005-.006,2.933-11.505.002v-6.988s3.819.015,3.819.015v4.151s-.962,0-.962,0l-.004-2.128h-1.515s-.006,3.701-.006,3.701l4.075-.005-.007-7.279-6.944-.002v8.534s-9.923.002-9.923.002V1.829s7.005-.004,7.005-.004v6.951s-3.877.003-3.877.003v-4.13s.942.002.942.002l-.006,2.048,1.613-.003-.012-3.615-4.065-.002-.007,7.267h6.947s.006-8.519.006-8.519h14.433s0,2.936,0,2.936l-2.684.011s0-.897-.006-.897h1.758s0-1.125,0-1.125l-2.939.015.003,3.14,8.903.002-.008-3.155-2.971.006-.003,1.129,1.793.009-.006.875-2.686-.005-.003-2.94h5.29s0,10.34,0,10.34l-5.279.005Z" fill="#eeedee"/>
  </g>
  <rect x="1417.771" width="30.821" height="14.055" fill="#bababa"/>
  <g id="HoPe7S.tif-45" data-name="HoPe7S.tif">
    <path d="M1441.912,12.171l-.014-2.925,2.727-.008v.831l-1.836.013.003,1.143,2.986-.005.003-3.115h-8.904s.002,3.118.002,3.118h2.958s0-1.141,0-1.141h-1.811s.005-.842.005-.842l2.716-.005-.006,2.933-11.505.002v-6.988s3.819.015,3.819.015v4.151s-.962,0-.962,0l-.004-2.128h-1.515s-.006,3.701-.006,3.701l4.075-.005-.007-7.279-6.944-.002v8.534s-9.923.002-9.923.002V1.829s7.005-.004,7.005-.004v6.951s-3.877.003-3.877.003v-4.13s.942.002.942.002l-.006,2.048,1.613-.003-.012-3.615-4.065-.002-.007,7.267h6.947s.006-8.519.006-8.519h14.433s0,2.936,0,2.936l-2.684.011s0-.897-.006-.897h1.758s0-1.125,0-1.125l-2.939.015.003,3.14,8.903.002-.008-3.155-2.971.006-.003,1.129,1.793.009-.006.875-2.686-.005-.003-2.94h5.29s0,10.34,0,10.34l-5.279.005Z" fill="#eeedee"/>
  </g>
  <rect x="1386.95" width="30.821" height="14.055" fill="#bababa"/>
  <g id="HoPe7S.tif-46" data-name="HoPe7S.tif">
    <path d="M1411.091,12.171l-.014-2.925,2.727-.008v.831l-1.836.013.003,1.143,2.986-.005.003-3.115h-8.904s.002,3.118.002,3.118h2.958s0-1.141,0-1.141h-1.811s.005-.842.005-.842l2.716-.005-.006,2.933-11.505.002v-6.988s3.819.015,3.819.015v4.151s-.962,0-.962,0l-.004-2.128h-1.515s-.006,3.701-.006,3.701l4.075-.005-.007-7.279-6.944-.002v8.534s-9.923.002-9.923.002V1.829s7.005-.004,7.005-.004v6.951s-3.877.003-3.877.003v-4.13s.942.002.942.002l-.006,2.048,1.613-.003-.012-3.615-4.065-.002-.007,7.267h6.947s.006-8.519.006-8.519h14.433s0,2.936,0,2.936l-2.684.011s0-.897-.006-.897h1.758s0-1.125,0-1.125l-2.939.015.003,3.14,8.903.002-.008-3.155-2.971.006-.003,1.129,1.793.009-.006.875-2.686-.005-.003-2.94h5.29s0,10.34,0,10.34l-5.279.005Z" fill="#eeedee"/>
  </g>
  <rect x="1356.129" width="30.821" height="14.055" fill="#bababa"/>
  <g id="HoPe7S.tif-47" data-name="HoPe7S.tif">
    <path d="M1380.27,12.171l-.014-2.925,2.727-.008v.831l-1.836.013.003,1.143,2.986-.005.003-3.115h-8.904s.002,3.118.002,3.118h2.958s0-1.141,0-1.141h-1.811s.005-.842.005-.842l2.716-.005-.006,2.933-11.505.002v-6.988s3.819.015,3.819.015v4.151s-.962,0-.962,0l-.004-2.128h-1.515s-.006,3.701-.006,3.701l4.075-.005-.007-7.279-6.944-.002v8.534s-9.923.002-9.923.002V1.829s7.005-.004,7.005-.004v6.951s-3.877.003-3.877.003v-4.13s.942.002.942.002l-.006,2.048,1.613-.003-.012-3.615-4.065-.002-.007,7.267h6.947s.006-8.519.006-8.519h14.433s0,2.936,0,2.936l-2.684.011s0-.897-.006-.897h1.758s0-1.125,0-1.125l-2.939.015.003,3.14,8.903.002-.008-3.155-2.971.006-.003,1.129,1.793.009-.006.875-2.686-.005-.003-2.94h5.29s0,10.34,0,10.34l-5.279.005Z" fill="#eeedee"/>
  </g>
  <rect x="1325.308" width="30.821" height="14.055" fill="#bababa"/>
  <g id="HoPe7S.tif-48" data-name="HoPe7S.tif">
    <path d="M1349.449,12.171l-.014-2.925,2.727-.008v.831l-1.836.013.003,1.143,2.986-.005.003-3.115h-8.904s.002,3.118.002,3.118h2.958s0-1.141,0-1.141h-1.811s.005-.842.005-.842l2.716-.005-.006,2.933-11.505.002v-6.988s3.819.015,3.819.015v4.151s-.962,0-.962,0l-.004-2.128h-1.515s-.006,3.701-.006,3.701l4.075-.005-.007-7.279-6.944-.002v8.534s-9.923.002-9.923.002V1.829s7.005-.004,7.005-.004v6.951s-3.877.003-3.877.003v-4.13s.942.002.942.002l-.006,2.048,1.613-.003-.012-3.615-4.065-.002-.007,7.267h6.947s.006-8.519.006-8.519h14.433s0,2.936,0,2.936l-2.684.011s0-.897-.006-.897h1.758s0-1.125,0-1.125l-2.939.015.003,3.14,8.903.002-.008-3.155-2.971.006-.003,1.129,1.793.009-.006.875-2.686-.005-.003-2.94h5.29s0,10.34,0,10.34l-5.279.005Z" fill="#eeedee"/>
  </g>
  <rect x="1294.486" width="30.821" height="14.055" fill="#bababa"/>
  <g id="HoPe7S.tif-49" data-name="HoPe7S.tif">
    <path d="M1318.628,12.171l-.014-2.925,2.727-.008v.831l-1.836.013.003,1.143,2.986-.005.003-3.115h-8.904s.002,3.118.002,3.118h2.958s0-1.141,0-1.141h-1.811s.005-.842.005-.842l2.716-.005-.006,2.933-11.505.002v-6.988s3.819.015,3.819.015v4.151s-.962,0-.962,0l-.004-2.128h-1.515s-.006,3.701-.006,3.701l4.075-.005-.007-7.279-6.944-.002v8.534s-9.923.002-9.923.002V1.829s7.005-.004,7.005-.004v6.951s-3.877.003-3.877.003v-4.13s.942.002.942.002l-.006,2.048,1.613-.003-.012-3.615-4.065-.002-.007,7.267h6.947s.006-8.519.006-8.519h14.433s0,2.936,0,2.936l-2.684.011s0-.897-.006-.897h1.758s0-1.125,0-1.125l-2.939.015.003,3.14,8.903.002-.008-3.155-2.971.006-.003,1.129,1.793.009-.006.875-2.686-.005-.003-2.94h5.29s0,10.34,0,10.34l-5.279.005Z" fill="#eeedee"/>
  </g>
  <rect x="1633.519" width="30.821" height="14.055" fill="#bababa"/>
  <g id="HoPe7S.tif-50" data-name="HoPe7S.tif">
    <path d="M1657.66,12.171l-.014-2.925,2.727-.008v.831l-1.836.013.003,1.143,2.986-.005.003-3.115h-8.904s.002,3.118.002,3.118h2.958s0-1.141,0-1.141h-1.811s.005-.842.005-.842l2.716-.005-.006,2.933-11.505.002v-6.988s3.819.015,3.819.015v4.151s-.962,0-.962,0l-.004-2.128h-1.515s-.006,3.701-.006,3.701l4.075-.005-.007-7.279-6.944-.002v8.534s-9.923.002-9.923.002V1.829s7.005-.004,7.005-.004v6.951s-3.877.003-3.877.003v-4.13s.942.002.942.002l-.006,2.048,1.613-.003-.012-3.615-4.065-.002-.007,7.267h6.947s.006-8.519.006-8.519h14.433s0,2.936,0,2.936l-2.684.011s0-.897-.006-.897h1.758s0-1.125,0-1.125l-2.939.015.003,3.14,8.903.002-.008-3.155-2.971.006-.003,1.129,1.793.009-.006.875-2.686-.005-.003-2.94h5.29s0,10.34,0,10.34l-5.279.005Z" fill="#eeedee"/>
  </g>
  <rect x="1602.697" width="30.821" height="14.055" fill="#bababa"/>
  <g id="HoPe7S.tif-51" data-name="HoPe7S.tif">
    <path d="M1626.839,12.171l-.014-2.925,2.727-.008v.831l-1.836.013.003,1.143,2.986-.005.003-3.115h-8.904s.002,3.118.002,3.118h2.958s0-1.141,0-1.141h-1.811s.005-.842.005-.842l2.716-.005-.006,2.933-11.505.002v-6.988s3.819.015,3.819.015v4.151s-.962,0-.962,0l-.004-2.128h-1.515s-.006,3.701-.006,3.701l4.075-.005-.007-7.279-6.944-.002v8.534s-9.923.002-9.923.002V1.829s7.005-.004,7.005-.004v6.951s-3.877.003-3.877.003v-4.13s.942.002.942.002l-.006,2.048,1.613-.003-.012-3.615-4.065-.002-.007,7.267h6.947s.006-8.519.006-8.519h14.433s0,2.936,0,2.936l-2.684.011s0-.897-.006-.897h1.758s0-1.125,0-1.125l-2.939.015.003,3.14,8.903.002-.008-3.155-2.971.006-.003,1.129,1.793.009-.006.875-2.686-.005-.003-2.94h5.29s0,10.34,0,10.34l-5.279.005Z" fill="#eeedee"/>
  </g>
  <rect x="1571.876" width="30.821" height="14.055" fill="#bababa"/>
  <g id="HoPe7S.tif-52" data-name="HoPe7S.tif">
    <path d="M1596.018,12.171l-.014-2.925,2.727-.008v.831l-1.836.013.003,1.143,2.986-.005.003-3.115h-8.904s.002,3.118.002,3.118h2.958s0-1.141,0-1.141h-1.811s.005-.842.005-.842l2.716-.005-.006,2.933-11.505.002v-6.988s3.819.015,3.819.015v4.151s-.962,0-.962,0l-.004-2.128h-1.515s-.006,3.701-.006,3.701l4.075-.005-.007-7.279-6.944-.002v8.534s-9.923.002-9.923.002V1.829s7.005-.004,7.005-.004v6.951s-3.877.003-3.877.003v-4.13s.942.002.942.002l-.006,2.048,1.613-.003-.012-3.615-4.065-.002-.007,7.267h6.947s.006-8.519.006-8.519h14.433s0,2.936,0,2.936l-2.684.011s0-.897-.006-.897h1.758s0-1.125,0-1.125l-2.939.015.003,3.14,8.903.002-.008-3.155-2.971.006-.003,1.129,1.793.009-.006.875-2.686-.005-.003-2.94h5.29s0,10.34,0,10.34l-5.279.005Z" fill="#eeedee"/>
  </g>
  <rect x="1541.055" width="30.821" height="14.055" fill="#bababa"/>
  <g id="HoPe7S.tif-53" data-name="HoPe7S.tif">
    <path d="M1565.197,12.171l-.014-2.925,2.727-.008v.831l-1.836.013.003,1.143,2.986-.005.003-3.115h-8.904s.002,3.118.002,3.118h2.958s0-1.141,0-1.141h-1.811s.005-.842.005-.842l2.716-.005-.006,2.933-11.505.002v-6.988s3.819.015,3.819.015v4.151s-.962,0-.962,0l-.004-2.128h-1.515s-.006,3.701-.006,3.701l4.075-.005-.007-7.279-6.944-.002v8.534s-9.923.002-9.923.002V1.829s7.005-.004,7.005-.004v6.951s-3.877.003-3.877.003v-4.13s.942.002.942.002l-.006,2.048,1.613-.003-.012-3.615-4.065-.002-.007,7.267h6.947s.006-8.519.006-8.519h14.433s0,2.936,0,2.936l-2.684.011s0-.897-.006-.897h1.758s0-1.125,0-1.125l-2.939.015.003,3.14,8.903.002-.008-3.155-2.971.006-.003,1.129,1.793.009-.006.875-2.686-.005-.003-2.94h5.29s0,10.34,0,10.34l-5.279.005Z" fill="#eeedee"/>
  </g>
  <rect x="1510.234" width="30.821" height="14.055" fill="#bababa"/>
  <g id="HoPe7S.tif-54" data-name="HoPe7S.tif">
    <path d="M1534.375,12.171l-.014-2.925,2.727-.008v.831l-1.836.013.003,1.143,2.986-.005.003-3.115h-8.904s.002,3.118.002,3.118h2.958s0-1.141,0-1.141h-1.811s.005-.842.005-.842l2.716-.005-.006,2.933-11.505.002v-6.988s3.819.015,3.819.015v4.151s-.962,0-.962,0l-.004-2.128h-1.515s-.006,3.701-.006,3.701l4.075-.005-.007-7.279-6.944-.002v8.534s-9.923.002-9.923.002V1.829s7.005-.004,7.005-.004v6.951s-3.877.003-3.877.003v-4.13s.942.002.942.002l-.006,2.048,1.613-.003-.012-3.615-4.065-.002-.007,7.267h6.947s.006-8.519.006-8.519h14.433s0,2.936,0,2.936l-2.684.011s0-.897-.006-.897h1.758s0-1.125,0-1.125l-2.939.015.003,3.14,8.903.002-.008-3.155-2.971.006-.003,1.129,1.793.009-.006.875-2.686-.005-.003-2.94h5.29s0,10.34,0,10.34l-5.279.005Z" fill="#eeedee"/>
  </g>
</svg>