<?xml version="1.0" encoding="UTF-8"?>
<svg id="Layer_1" data-name="Layer 1" xmlns="http://www.w3.org/2000/svg" viewBox="0 0 107.312 18.159">
  <path d="M13.796,18.159H0V0h13.796v18.159ZM.801,17.359h12.194V.8H.801v16.56Z" fill="#e51b46"/>
  <path d="M46.679,18.159h-13.795v-.35l-3.539-9.164v9.513h-13.771V0h13.645l3.665,9.489V0h13.795v18.159ZM33.568,17.359h12.31V.8h-12.193v12.98L28.67.8h-12.295v16.56h12.169V4.355l5.024,13.004Z" fill="#e51b46"/>
  <path d="M68.725,18.159h-13.795V2.982h-6.498V0h26.79v2.982h-6.497v15.177ZM55.73,17.359h12.193V2.183h6.497V.8h-25.188v1.383h6.498v15.177Z" fill="#e51b46"/>
  <path d="M100.34,18.159h-17.558c-.966-.018-1.881-.212-2.727-.579-.842-.364-1.589-.868-2.219-1.497-.628-.629-1.132-1.375-1.498-2.22-.367-.85-.554-1.767-.554-2.726v-4.142c0-.959.187-1.876.554-2.725.366-.845.87-1.591,1.497-2.22.631-.629,1.378-1.133,2.22-1.498.849-.368,1.766-.554,2.727-.554h17.558c.96,0,1.873.187,2.714.555.835.364,1.577.868,2.206,1.497s1.131,1.369,1.497,2.205c.368.842.555,1.764.555,2.74v4.142c0,.959-.187,1.876-.554,2.725-.367.846-.87,1.596-1.496,2.23-.627.636-1.369,1.145-2.208,1.511-.842.368-1.755.554-2.714.554ZM82.782.8c-.851,0-1.661.165-2.408.489-.75.324-1.414.771-1.973,1.329-.555.556-1.002,1.22-1.328,1.972-.323.748-.487,1.558-.487,2.407v4.142c0,.849.164,1.659.487,2.408.326.751.773,1.415,1.329,1.972.558.557,1.222,1.004,1.972,1.329.749.325,1.562.498,2.415.513h17.551c.848,0,1.653-.164,2.394-.487.744-.326,1.403-.777,1.958-1.34.557-.564,1.005-1.232,1.332-1.987.323-.748.487-1.558.487-2.407v-4.142c0-.865-.163-1.679-.486-2.419-.326-.744-.774-1.404-1.331-1.96s-1.217-1.005-1.96-1.329c-.739-.324-1.545-.488-2.394-.488h-17.558ZM93.297,15.977h-3.547c-.222,0-.419-.079-.568-.229s-.229-.337-.229-.543V2.955c0-.206.079-.394.229-.543s.347-.229.568-.229h3.547c.222,0,.419.079.568.229s.229.337.229.543v12.25c0,.206-.079.394-.229.543s-.347.229-.568.229ZM93.293,2.979l-3.543.003.004,12.222,3.543-.028-.004-12.197ZM93.293,2.955h.4-.4Z" fill="#e51b46"/>
</svg>