<?xml version="1.0" encoding="UTF-8"?>
<svg id="Layer_1" data-name="Layer 1" xmlns="http://www.w3.org/2000/svg" viewBox="0 0 106.511 17.359">
  <path d="M0,0h12.995v17.359H0V0Z" fill="#e51b46"/>
  <path d="M45.878,0v17.359h-12.994v-.024l-4.34-11.234v11.259h-12.97V0h12.97l4.34,11.234V0h12.994Z" fill="#e51b46"/>
  <path d="M74.421,0v2.183h-6.497v15.177h-12.994V2.183h-6.498V0h25.989Z" fill="#e51b46"/>
  <path d="M99.939,0c.908,0,1.76.174,2.554.521.794.347,1.488.818,2.083,1.413s1.066,1.29,1.414,2.083c.347.794.521,1.653.521,2.579v4.142c0,.909-.174,1.765-.521,2.566-.348.802-.818,1.505-1.414,2.108-.595.604-1.289,1.078-2.083,1.426-.794.347-1.646.521-2.554.521h-17.558c-.909-.017-1.766-.198-2.567-.546-.802-.347-1.5-.818-2.096-1.413-.595-.596-1.065-1.294-1.413-2.096-.347-.802-.521-1.657-.521-2.566v-4.142c0-.909.174-1.765.521-2.566.348-.802.818-1.5,1.413-2.096.596-.595,1.294-1.066,2.096-1.413.802-.348,1.658-.521,2.567-.521h17.558ZM93.293,2.555c0-.1-.037-.187-.111-.261s-.17-.111-.285-.111h-3.547c-.115,0-.211.037-.285.111s-.111.161-.111.261v12.25c0,.1.037.187.111.261s.17.111.285.111h3.547c.115,0,.211-.037.285-.111s.111-.161.111-.261V2.555Z" fill="#e51b46"/>
</svg>